<svg width="164" height="20" viewBox="0 0 164 20" fill="none" xmlns="http://www.w3.org/2000/svg">
<path d="M6.32 8.04H9.92V9.96H6.32V13.56H4.4V9.96H0.8V8.04H4.4V4.44H6.32V8.04ZM10.4614 2.4H20.5614V4.2L14.9214 16H12.4614L17.9814 4.44H10.4614V2.4ZM33.4036 2.4H35.7436V11.24H38.0836V13.22H35.7436V16H33.5436V13.22H26.1636V11.28L33.4036 2.4ZM33.5436 11.24V5.3L28.7036 11.24H33.5436ZM39.3719 6.7C39.3719 5.26 39.8519 4.14 40.8119 3.34C41.7719 2.54 42.9719 2.14 44.4119 2.14C46.4252 2.14 47.9119 2.74 48.8719 3.94C49.8452 5.14 50.3319 6.85333 50.3319 9.08C50.3319 11.4533 49.7452 13.2467 48.5719 14.46C47.3985 15.66 45.8852 16.26 44.0319 16.26C42.7919 16.26 41.6185 15.9933 40.5119 15.46V13.38C41.5385 13.9533 42.6385 14.24 43.8119 14.24C44.9585 14.24 45.9119 13.9 46.6719 13.22C47.4452 12.54 47.8985 11.44 48.0319 9.92C46.8052 10.6533 45.4852 11.02 44.0719 11.02C42.8052 11.02 41.7052 10.64 40.7719 9.88C39.8385 9.12 39.3719 8.06 39.3719 6.7ZM44.5719 4.1C43.7185 4.1 43.0185 4.30667 42.4719 4.72C41.9385 5.12 41.6719 5.74667 41.6719 6.6C41.6719 7.46667 41.9585 8.09333 42.5319 8.48C43.1052 8.85333 43.8385 9.04 44.7319 9.04C45.9585 9.04 47.0519 8.66 48.0119 7.9C47.7719 5.36667 46.6252 4.1 44.5719 4.1ZM53.1291 2.4H61.5091V4.44H55.2291L55.0291 7.72C55.6824 7.56 56.3691 7.48 57.0891 7.48C58.5424 7.48 59.7491 7.83333 60.7091 8.54C61.6691 9.23333 62.1491 10.3267 62.1491 11.82C62.1491 13.2333 61.6224 14.3267 60.5691 15.1C59.5291 15.8733 58.2224 16.26 56.6491 16.26C55.0091 16.26 53.5557 15.9533 52.2891 15.34V13.2C53.4357 13.8667 54.8024 14.2 56.3891 14.2C57.4291 14.2 58.2624 13.9933 58.8891 13.58C59.5291 13.1667 59.8491 12.5733 59.8491 11.8C59.8491 10.1733 58.6157 9.36 56.1491 9.36C55.0024 9.36 53.8491 9.56 52.6891 9.96L53.1291 2.4ZM78.0553 5.86C78.0553 6.56667 77.8686 7.18667 77.4953 7.72C77.1353 8.25333 76.6486 8.62 76.0353 8.82C76.7686 9.04667 77.382 9.44667 77.8753 10.02C78.3686 10.5933 78.6153 11.3533 78.6153 12.3C78.6153 13.5933 78.122 14.58 77.1353 15.26C76.1486 15.9267 74.9086 16.26 73.4153 16.26C71.6686 16.26 70.0953 15.96 68.6953 15.36V13.16C70.002 13.88 71.5153 14.2267 73.2353 14.2C75.3686 14.1733 76.4353 13.46 76.4353 12.06C76.4353 10.7 75.4753 10.02 73.5553 10.02H71.3953V7.96L73.2953 7.98C74.122 7.98 74.7553 7.82 75.1953 7.5C75.6486 7.16667 75.8753 6.71333 75.8753 6.14C75.8753 5.52667 75.622 5.05333 75.1153 4.72C74.622 4.37333 73.9153 4.2 72.9953 4.2C71.582 4.2 70.2286 4.57333 68.9353 5.32V3.14C70.202 2.47333 71.6553 2.14 73.2953 2.14C74.722 2.14 75.8686 2.47333 76.7353 3.14C77.6153 3.80667 78.0553 4.71333 78.0553 5.86ZM80.8512 3.52C82.1979 2.6 83.7046 2.14 85.3713 2.14C86.7979 2.14 87.9513 2.47333 88.8313 3.14C89.7113 3.79333 90.1513 4.73333 90.1513 5.96C90.1513 6.98667 89.8113 7.86667 89.1313 8.6C88.4646 9.32 87.5513 10.0267 86.3913 10.72C86.2979 10.7733 86.1246 10.8733 85.8713 11.02C85.6313 11.1667 85.4579 11.2733 85.3513 11.34C85.2579 11.3933 85.1046 11.4867 84.8913 11.62C84.6779 11.7533 84.5179 11.8533 84.4113 11.92C84.3179 11.9867 84.1846 12.0867 84.0113 12.22C83.8513 12.34 83.7313 12.4467 83.6513 12.54C83.5713 12.62 83.4779 12.7267 83.3713 12.86C83.2646 12.98 83.1846 13.0933 83.1313 13.2C83.0913 13.3067 83.0513 13.4267 83.0113 13.56C82.9713 13.6933 82.9513 13.8267 82.9513 13.96L90.2513 13.94V16H80.3913V14.96C80.3913 14.2133 80.4913 13.5533 80.6913 12.98C80.9046 12.3933 81.2713 11.86 81.7913 11.38C82.3246 10.8867 82.7379 10.54 83.0313 10.34C83.3246 10.1267 83.8446 9.8 84.5913 9.36C84.6579 9.30667 84.7113 9.26667 84.7513 9.24C84.8046 9.21333 84.8579 9.18667 84.9113 9.16C86.0313 8.50667 86.7513 8.03333 87.0713 7.74C87.6046 7.22 87.8713 6.64 87.8713 6C87.8713 5.41333 87.6313 4.96667 87.1513 4.66C86.6846 4.35333 86.0246 4.2 85.1713 4.2C83.6913 4.2 82.2513 4.70667 80.8512 5.72V3.52ZM92.5505 3.52C93.8971 2.6 95.4038 2.14 97.0705 2.14C98.4971 2.14 99.6505 2.47333 100.53 3.14C101.41 3.79333 101.85 4.73333 101.85 5.96C101.85 6.98667 101.51 7.86667 100.83 8.6C100.164 9.32 99.2505 10.0267 98.0905 10.72C97.9971 10.7733 97.8238 10.8733 97.5705 11.02C97.3305 11.1667 97.1571 11.2733 97.0505 11.34C96.9571 11.3933 96.8038 11.4867 96.5905 11.62C96.3771 11.7533 96.2171 11.8533 96.1105 11.92C96.0171 11.9867 95.8838 12.0867 95.7105 12.22C95.5505 12.34 95.4305 12.4467 95.3505 12.54C95.2705 12.62 95.1771 12.7267 95.0705 12.86C94.9638 12.98 94.8838 13.0933 94.8305 13.2C94.7905 13.3067 94.7505 13.4267 94.7105 13.56C94.6705 13.6933 94.6505 13.8267 94.6505 13.96L101.95 13.94V16H92.0905V14.96C92.0905 14.2133 92.1905 13.5533 92.3905 12.98C92.6038 12.3933 92.9705 11.86 93.4905 11.38C94.0238 10.8867 94.4371 10.54 94.7305 10.34C95.0238 10.1267 95.5438 9.8 96.2905 9.36C96.3571 9.30667 96.4105 9.26667 96.4505 9.24C96.5038 9.21333 96.5571 9.18667 96.6105 9.16C97.7305 8.50667 98.4505 8.03333 98.7705 7.74C99.3038 7.22 99.5705 6.64 99.5705 6C99.5705 5.41333 99.3305 4.96667 98.8505 4.66C98.3838 4.35333 97.7238 4.2 96.8705 4.2C95.3905 4.2 93.9505 4.70667 92.5505 5.72V3.52ZM109.496 2.4H117.876V4.44H111.596L111.396 7.72C112.05 7.56 112.736 7.48 113.456 7.48C114.91 7.48 116.116 7.83333 117.076 8.54C118.036 9.23333 118.516 10.3267 118.516 11.82C118.516 13.2333 117.99 14.3267 116.936 15.1C115.896 15.8733 114.59 16.26 113.016 16.26C111.376 16.26 109.923 15.9533 108.656 15.34V13.2C109.803 13.8667 111.17 14.2 112.756 14.2C113.796 14.2 114.63 13.9933 115.256 13.58C115.896 13.1667 116.216 12.5733 116.216 11.8C116.216 10.1733 114.983 9.36 112.516 9.36C111.37 9.36 110.216 9.56 109.056 9.96L109.496 2.4ZM127.056 2.4H129.396V11.24H131.736V13.22H129.396V16H127.196V13.22H119.816V11.28L127.056 2.4ZM127.196 11.24V5.3L122.356 11.24H127.196ZM144.771 2.4H147.111V11.24H149.451V13.22H147.111V16H144.911V13.22H137.531V11.28L144.771 2.4ZM144.911 11.24V5.3L140.071 11.24H144.911ZM151.439 5.78C151.439 4.79333 151.872 3.94 152.739 3.22C153.606 2.5 154.872 2.14 156.539 2.14C158.099 2.14 159.339 2.51333 160.259 3.26C161.192 4.00667 161.672 4.89333 161.699 5.92C161.726 7.25333 161.126 8.35333 159.899 9.22C161.419 9.98 162.179 11.0533 162.179 12.44C162.179 13.5067 161.712 14.4133 160.779 15.16C159.846 15.8933 158.459 16.26 156.619 16.26C154.792 16.26 153.392 15.8733 152.419 15.1C151.446 14.3133 150.959 13.36 150.959 12.24C150.959 11.5733 151.152 10.92 151.539 10.28C151.926 9.64 152.472 9.10667 153.179 8.68C152.019 7.93333 151.439 6.96667 151.439 5.78ZM156.779 10.12C155.899 9.85333 155.246 9.64 154.819 9.48C154.299 9.8 153.899 10.1867 153.619 10.64C153.352 11.08 153.219 11.5267 153.219 11.98C153.232 12.7 153.532 13.2733 154.119 13.7C154.719 14.1133 155.586 14.32 156.719 14.32C157.639 14.32 158.392 14.1533 158.979 13.82C159.579 13.4867 159.879 13.0533 159.879 12.52C159.879 12.24 159.826 11.9933 159.719 11.78C159.612 11.5533 159.472 11.3667 159.299 11.22C159.139 11.0733 158.926 10.9333 158.659 10.8C158.392 10.6667 158.132 10.56 157.879 10.48C157.626 10.3867 157.326 10.2867 156.979 10.18C156.952 10.1667 156.926 10.16 156.899 10.16C156.886 10.16 156.866 10.1533 156.839 10.14C156.826 10.1267 156.806 10.12 156.779 10.12ZM159.459 6.2C159.459 5.58667 159.192 5.08 158.659 4.68C158.126 4.28 157.386 4.08 156.439 4.08C155.586 4.08 154.906 4.24 154.399 4.56C153.906 4.88 153.659 5.28 153.659 5.76C153.659 6.21333 153.812 6.6 154.119 6.92C154.439 7.24 154.746 7.46 155.039 7.58C155.332 7.7 155.799 7.86 156.439 8.06C156.546 8.1 156.626 8.12667 156.679 8.14C157.239 8.28667 157.726 8.42667 158.139 8.56C159.019 7.88 159.459 7.09333 159.459 6.2Z" fill="#666666"/>
</svg>
